# xmcd
#
# Track frame offsets: 
#        150
#        7742
#        28165
#        37915
#        49270
#        59370
#        69752
#        79912
#        91779
#        103307
#        112792
#        124515
#        136237
#        146140
#        159322
#        170867
#        184045
#        196915
#        208567
#        220712
#        234677
#        245717
#        260077
#        273360
#
# Disc length: 3804 seconds
#
# Revision: 3
# Processed by: cddbd v1.5.2PL0 Copyright (c) Steve Scherf et al.
# Submitted via: ExactAudioCopy v0.95b4
#
DISCID=510eda18
DTITLE=Conway Twitty - The Conway Twitty Collection [CD1]
DYEAR=1994
DGENRE=Country
TTITLE0=Cry Baby Heart
TTITLE1=Maybellene
TTITLE2=Rock House
TTITLE3=I Need Your Lovin'
TTITLE4=It's Only Make Believe
TTITLE5=The Story of My Love
TTITLE6=Lonely Blue Boy
TTITLE7=What Am I Living For
TTITLE8=Unchained Melody
TTITLE9=The Next Kiss (Is the Last Goodbye)
TTITLE10=Such A Night
TTITLE11=Walk Me to the Door
TTITLE12=Funny (But I'm Not Laughing)
TTITLE13=Together Forever
TTITLE14=Guess My Eyes Were Bigger Than My Heart
TTITLE15=The Image of Me
TTITLE16=Next in Line
TTITLE17=Darling, You Know I Wouldn't Lie
TTITLE18=To See My Angel Cry
TTITLE19=That's When She Started to Stop Loving You
TTITLE20=Hello Darlin'
TTITLE21=Fifteen Years Ago
TTITLE22=How Much More Can She Stand
TTITLE23=After The Fire is Gone (with Loretta Lynn)
EXTD=
EXTT0=
EXTT1=
EXTT2=
EXTT3=
EXTT4=
EXTT5=
EXTT6=
EXTT7=
EXTT8=
EXTT9=
EXTT10=
EXTT11=
EXTT12=
EXTT13=
EXTT14=
EXTT15=
EXTT16=
EXTT17=
EXTT18=
EXTT19=
EXTT20=
EXTT21=
EXTT22=
EXTT23=
PLAYORDER=
